<svg xmlns="http://www.w3.org/2000/svg" xmlns:xlink="http://www.w3.org/1999/xlink" width="250" zoomAndPan="magnify" viewBox="0 0 187.5 112.499997" height="150" preserveAspectRatio="xMidYMid meet" version="1.0"><defs><g/></defs><g fill="#ff6200" fill-opacity="1"><g transform="translate(-0.265452, 70.646058)"><g><path d="M 40.125 -13.265625 C 40.757812 -13.265625 41.078125 -12.398438 41.078125 -10.671875 C 41.078125 -9.742188 40.679688 -8.613281 39.890625 -7.28125 C 39.109375 -5.945312 38.085938 -4.726562 36.828125 -3.625 C 35.578125 -2.519531 34.179688 -1.609375 32.640625 -0.890625 C 31.109375 -0.179688 29.648438 0.171875 28.265625 0.171875 C 26.878906 0.171875 25.789062 -0.0859375 25 -0.609375 C 24.21875 -1.140625 23.601562 -1.851562 23.15625 -2.75 C 22.519531 -4.03125 21.992188 -6.457031 21.578125 -10.03125 C 21.171875 -13.613281 20.757812 -16.113281 20.34375 -17.53125 C 19.375 -17.71875 18.519531 -18.101562 17.78125 -18.6875 C 17.050781 -19.269531 16.6875 -19.984375 16.6875 -20.828125 C 16.6875 -21.671875 17.070312 -22.28125 17.84375 -22.65625 C 18.613281 -23.03125 19.492188 -23.21875 20.484375 -23.21875 C 21.472656 -23.21875 22.363281 -22.972656 23.15625 -22.484375 C 24.207031 -23.347656 25.0625 -24.367188 25.71875 -25.546875 C 26.375 -26.722656 26.703125 -28.3125 26.703125 -30.3125 C 26.703125 -32.320312 26.023438 -33.925781 24.671875 -35.125 C 23.328125 -36.320312 21.351562 -36.921875 18.75 -36.921875 C 16.144531 -36.921875 14.144531 -36.710938 12.75 -36.296875 C 11.363281 -35.890625 10.175781 -35.441406 9.1875 -34.953125 C 8.195312 -34.472656 7.316406 -34.023438 6.546875 -33.609375 C 5.773438 -33.191406 5.050781 -32.984375 4.375 -32.984375 C 3.707031 -32.984375 3.375 -33.195312 3.375 -33.625 C 3.375 -34.0625 3.726562 -34.765625 4.4375 -35.734375 C 5.15625 -36.710938 6.207031 -37.691406 7.59375 -38.671875 C 11.070312 -41.109375 15.003906 -42.316406 19.390625 -42.296875 C 23.773438 -42.273438 27.390625 -41.441406 30.234375 -39.796875 C 33.566406 -37.847656 35.234375 -34.925781 35.234375 -31.03125 C 35.273438 -27.800781 34.429688 -25.117188 32.703125 -22.984375 C 30.984375 -20.847656 28.847656 -19.3125 26.296875 -18.375 C 26.859375 -17.144531 27.316406 -15.816406 27.671875 -14.390625 C 28.035156 -12.960938 28.382812 -11.648438 28.71875 -10.453125 C 29.050781 -9.253906 29.429688 -8.257812 29.859375 -7.46875 C 30.296875 -6.6875 30.820312 -6.296875 31.4375 -6.296875 C 32.0625 -6.296875 32.8125 -6.660156 33.6875 -7.390625 C 34.570312 -8.117188 35.441406 -8.914062 36.296875 -9.78125 C 37.160156 -10.644531 37.9375 -11.441406 38.625 -12.171875 C 39.320312 -12.898438 39.820312 -13.265625 40.125 -13.265625 Z M 15.6875 -33.5 C 16.164062 -33.5 16.40625 -32.859375 16.40625 -31.578125 C 16.40625 -30.304688 16.332031 -29.109375 16.1875 -27.984375 C 15.851562 -25.816406 15.421875 -23.796875 14.890625 -21.921875 C 13.546875 -16.828125 12.875 -13.847656 12.875 -12.984375 L 12.875 -4.71875 C 12.875 -2.695312 12.101562 -1.3125 10.5625 -0.5625 C 9.851562 -0.226562 9.171875 0.0859375 8.515625 0.390625 C 7.859375 0.691406 7.117188 0.84375 6.296875 0.84375 C 4.722656 0.84375 3.9375 -0.960938 3.9375 -4.578125 C 3.9375 -8.191406 4.78125 -12.753906 6.46875 -18.265625 C 8.15625 -23.773438 9.914062 -27.972656 11.75 -30.859375 C 12.125 -31.421875 12.664062 -32 13.375 -32.59375 C 14.082031 -33.195312 14.851562 -33.5 15.6875 -33.5 Z M 15.6875 -33.5 "/></g></g></g><g fill="#ff6200" fill-opacity="1"><g transform="translate(36.319752, 70.646058)"><g><path d="M 14.78125 -6.125 C 17.707031 -6.125 20.535156 -7.285156 23.265625 -9.609375 C 24.273438 -10.472656 25.097656 -11.269531 25.734375 -12 C 26.378906 -12.726562 26.867188 -13.09375 27.203125 -13.09375 C 27.722656 -13.09375 27.984375 -12.566406 27.984375 -11.515625 C 27.984375 -10.472656 27.703125 -9.300781 27.140625 -8 C 26.578125 -6.707031 25.644531 -5.445312 24.34375 -4.21875 C 21.113281 -1.175781 16.691406 0.34375 11.078125 0.34375 C 6.617188 0.34375 3.582031 -1.269531 1.96875 -4.5 C 1.40625 -5.625 1.125 -7.234375 1.125 -9.328125 C 1.125 -11.429688 1.535156 -13.613281 2.359375 -15.875 C 3.179688 -18.144531 4.273438 -20.101562 5.640625 -21.75 C 7.015625 -23.394531 8.597656 -24.675781 10.390625 -25.59375 C 12.191406 -26.519531 14.113281 -26.984375 16.15625 -26.984375 C 18.195312 -26.984375 19.769531 -26.472656 20.875 -25.453125 C 21.976562 -24.441406 22.53125 -23.128906 22.53125 -21.515625 C 22.53125 -19.910156 22.128906 -18.59375 21.328125 -17.5625 C 20.523438 -16.53125 19.484375 -15.664062 18.203125 -14.96875 C 16.929688 -14.28125 15.519531 -13.664062 13.96875 -13.125 C 12.414062 -12.582031 10.890625 -11.972656 9.390625 -11.296875 L 9.390625 -9.890625 C 9.421875 -8.546875 9.976562 -7.59375 11.0625 -7.03125 C 12.15625 -6.46875 13.394531 -6.164062 14.78125 -6.125 Z M 13.828125 -21.96875 C 11.878906 -21.96875 10.53125 -19.703125 9.78125 -15.171875 C 10.5625 -15.703125 11.300781 -16.171875 12 -16.578125 C 12.695312 -16.992188 13.304688 -17.390625 13.828125 -17.765625 C 14.953125 -18.585938 15.53125 -19.523438 15.5625 -20.578125 C 15.5625 -21.503906 14.984375 -21.96875 13.828125 -21.96875 Z M 13.828125 -21.96875 "/></g></g></g><g fill="#ff6200" fill-opacity="1"><g transform="translate(59.81071, 70.646058)"><g><path d="M 24 -13.265625 C 24.675781 -13.265625 25.015625 -12.691406 25.015625 -11.546875 C 25.015625 -10.398438 24.722656 -9.171875 24.140625 -7.859375 C 23.554688 -6.554688 22.675781 -5.296875 21.5 -4.078125 C 20.320312 -2.859375 18.8125 -1.816406 16.96875 -0.953125 C 15.132812 -0.0859375 12.972656 0.34375 10.484375 0.34375 C 7.992188 0.34375 5.8125 -0.394531 3.9375 -1.875 C 2.0625 -3.363281 1.125 -5.503906 1.125 -8.296875 C 1.125 -11.085938 1.5625 -13.613281 2.4375 -15.875 C 3.320312 -18.144531 4.484375 -20.101562 5.921875 -21.75 C 7.367188 -23.394531 9.007812 -24.675781 10.84375 -25.59375 C 12.675781 -26.519531 14.421875 -26.984375 16.078125 -26.984375 C 18.960938 -26.984375 20.40625 -25.835938 20.40625 -23.546875 C 20.40625 -22.234375 20.128906 -21.179688 19.578125 -20.390625 C 19.035156 -19.609375 18.484375 -19.21875 17.921875 -19.21875 C 17.179688 -19.21875 16.53125 -19.476562 15.96875 -20 C 15.40625 -20.53125 14.785156 -20.800781 14.109375 -20.8125 C 13.429688 -20.832031 12.78125 -20.503906 12.15625 -19.828125 C 11.539062 -19.160156 11.03125 -18.300781 10.625 -17.25 C 9.800781 -15.15625 9.390625 -12.703125 9.390625 -9.890625 C 9.421875 -8.546875 10.035156 -7.535156 11.234375 -6.859375 C 12.066406 -6.410156 13.039062 -6.175781 14.15625 -6.15625 C 15.28125 -6.132812 16.359375 -6.5 17.390625 -7.25 C 18.421875 -8 19.367188 -8.8125 20.234375 -9.6875 C 21.097656 -10.570312 21.859375 -11.390625 22.515625 -12.140625 C 23.171875 -12.890625 23.664062 -13.265625 24 -13.265625 Z M 24 -13.265625 "/></g></g></g><g fill="#ff6200" fill-opacity="1"><g transform="translate(80.323147, 70.646058)"><g><path d="M 8.4375 0.171875 C 4.6875 0.171875 2.8125 -3.332031 2.8125 -10.34375 C 2.8125 -14.164062 3.28125 -17.628906 4.21875 -20.734375 C 5.675781 -25.535156 7.320312 -27.9375 9.15625 -27.9375 C 10.25 -27.9375 11.113281 -27.203125 11.75 -25.734375 C 12.269531 -24.617188 12.515625 -23.515625 12.484375 -22.421875 C 12.484375 -20.921875 12.03125 -18.28125 11.125 -14.5 C 10.257812 -11.195312 9.828125 -9.148438 9.828125 -8.359375 C 9.828125 -7.578125 10.023438 -7.035156 10.421875 -6.734375 C 10.816406 -6.441406 11.285156 -6.296875 11.828125 -6.296875 C 12.367188 -6.296875 13.050781 -6.648438 13.875 -7.359375 C 14.707031 -8.078125 15.535156 -8.851562 16.359375 -9.6875 C 17.179688 -10.53125 17.9375 -11.304688 18.625 -12.015625 C 19.320312 -12.734375 19.800781 -13.09375 20.0625 -13.09375 C 20.582031 -13.09375 20.84375 -12.457031 20.84375 -11.1875 C 20.84375 -8.5625 19.519531 -6.003906 16.875 -3.515625 C 14.238281 -1.023438 11.425781 0.203125 8.4375 0.171875 Z M 10.734375 -32.484375 C 9.722656 -33.984375 9.21875 -35.59375 9.21875 -37.3125 C 9.21875 -39.039062 9.488281 -40.472656 10.03125 -41.609375 C 10.570312 -42.753906 11.085938 -43.597656 11.578125 -44.140625 C 12.066406 -44.691406 12.628906 -44.96875 13.265625 -44.96875 C 14.316406 -44.96875 15.269531 -44.1875 16.125 -42.625 C 16.988281 -41.070312 17.421875 -39.769531 17.421875 -38.71875 C 17.421875 -36.769531 16.734375 -35.242188 15.359375 -34.140625 C 13.992188 -33.035156 12.453125 -32.484375 10.734375 -32.484375 Z M 10.734375 -32.484375 "/></g></g></g><g fill="#ff6200" fill-opacity="1"><g transform="translate(96.676899, 70.646058)"><g><path d="M 12.3125 -23.546875 C 14.257812 -25.753906 16.75 -26.859375 19.78125 -26.859375 C 24.125 -26.859375 26.878906 -25.097656 28.046875 -21.578125 C 28.378906 -20.535156 28.546875 -19.375 28.546875 -18.09375 C 28.546875 -15.25 27.617188 -12.441406 25.765625 -9.671875 C 23.910156 -6.898438 21.671875 -5.023438 19.046875 -4.046875 L 19.734375 -4.046875 C 22.460938 -4.046875 25.234375 -5.054688 28.046875 -7.078125 C 29.847656 -8.359375 31.257812 -9.679688 32.28125 -11.046875 C 33.3125 -12.410156 34.09375 -13.09375 34.625 -13.09375 C 35.144531 -13.09375 35.40625 -12.492188 35.40625 -11.296875 C 35.40625 -9.203125 34.503906 -7.085938 32.703125 -4.953125 C 30.003906 -1.878906 26.5625 -0.078125 22.375 0.453125 C 19.332031 0.785156 17.175781 0.835938 15.90625 0.609375 C 14.632812 0.390625 13.660156 0.113281 12.984375 -0.21875 C 11.523438 -0.96875 10.796875 -2.09375 10.796875 -3.59375 C 10.796875 -4.414062 10.960938 -5.164062 11.296875 -5.84375 C 14.253906 -5.84375 16.5 -6.96875 18.03125 -9.21875 C 19.570312 -11.46875 20.34375 -14.273438 20.34375 -17.640625 C 20.34375 -18.472656 20.039062 -19.210938 19.4375 -19.859375 C 18.84375 -20.515625 18.046875 -20.84375 17.046875 -20.84375 C 16.054688 -20.84375 14.976562 -20.410156 13.8125 -19.546875 C 12.65625 -18.691406 11.726562 -17.617188 11.03125 -16.328125 C 10.34375 -15.035156 9.71875 -13.757812 9.15625 -12.5 C 8.59375 -11.25 8.144531 -9.664062 7.8125 -7.75 C 7.207031 -4.300781 6.519531 0.0507812 5.75 5.3125 C 4.988281 10.570312 4.515625 13.398438 4.328125 13.796875 C 4.140625 14.191406 3.859375 14.554688 3.484375 14.890625 C 3.109375 15.234375 2.710938 15.40625 2.296875 15.40625 C 1.554688 15.40625 0.941406 15.175781 0.453125 14.71875 C -0.898438 13.5625 -1.6875 12.671875 -1.90625 12.046875 C -2.132812 11.429688 -2.25 10.640625 -2.25 9.671875 C -2.25 5.992188 -1.628906 0.84375 -0.390625 -5.78125 C 0.847656 -12.414062 2.984375 -19.3125 6.015625 -26.46875 C 6.460938 -27.519531 7.253906 -28.046875 8.390625 -28.046875 C 9.535156 -28.046875 10.632812 -27.035156 11.6875 -25.015625 C 11.988281 -24.484375 12.195312 -23.992188 12.3125 -23.546875 Z M 12.3125 -23.546875 "/></g></g></g><g fill="#ff6200" fill-opacity="1"><g transform="translate(127.586059, 70.646058)"><g><path d="M 8.4375 0.171875 C 4.6875 0.171875 2.8125 -3.332031 2.8125 -10.34375 C 2.8125 -14.164062 3.28125 -17.628906 4.21875 -20.734375 C 5.675781 -25.535156 7.320312 -27.9375 9.15625 -27.9375 C 10.25 -27.9375 11.113281 -27.203125 11.75 -25.734375 C 12.269531 -24.617188 12.515625 -23.515625 12.484375 -22.421875 C 12.484375 -20.921875 12.03125 -18.28125 11.125 -14.5 C 10.257812 -11.195312 9.828125 -9.148438 9.828125 -8.359375 C 9.828125 -7.578125 10.023438 -7.035156 10.421875 -6.734375 C 10.816406 -6.441406 11.285156 -6.296875 11.828125 -6.296875 C 12.367188 -6.296875 13.050781 -6.648438 13.875 -7.359375 C 14.707031 -8.078125 15.535156 -8.851562 16.359375 -9.6875 C 17.179688 -10.53125 17.9375 -11.304688 18.625 -12.015625 C 19.320312 -12.734375 19.800781 -13.09375 20.0625 -13.09375 C 20.582031 -13.09375 20.84375 -12.457031 20.84375 -11.1875 C 20.84375 -8.5625 19.519531 -6.003906 16.875 -3.515625 C 14.238281 -1.023438 11.425781 0.203125 8.4375 0.171875 Z M 10.734375 -32.484375 C 9.722656 -33.984375 9.21875 -35.59375 9.21875 -37.3125 C 9.21875 -39.039062 9.488281 -40.472656 10.03125 -41.609375 C 10.570312 -42.753906 11.085938 -43.597656 11.578125 -44.140625 C 12.066406 -44.691406 12.628906 -44.96875 13.265625 -44.96875 C 14.316406 -44.96875 15.269531 -44.1875 16.125 -42.625 C 16.988281 -41.070312 17.421875 -39.769531 17.421875 -38.71875 C 17.421875 -36.769531 16.734375 -35.242188 15.359375 -34.140625 C 13.992188 -33.035156 12.453125 -32.484375 10.734375 -32.484375 Z M 10.734375 -32.484375 "/></g></g></g><g fill="#ff6200" fill-opacity="1"><g transform="translate(143.939811, 70.646058)"><g><path d="M 36.640625 -40.078125 C 36.640625 -37.898438 32.390625 -31.640625 23.890625 -21.296875 C 24.265625 -19.316406 24.617188 -17.414062 24.953125 -15.59375 C 25.285156 -13.78125 25.660156 -12.1875 26.078125 -10.8125 C 26.492188 -9.445312 26.972656 -8.351562 27.515625 -7.53125 C 28.054688 -6.707031 28.660156 -6.296875 29.328125 -6.296875 C 30.003906 -6.296875 30.753906 -6.648438 31.578125 -7.359375 C 32.410156 -8.078125 33.238281 -8.851562 34.0625 -9.6875 C 34.882812 -10.53125 35.640625 -11.304688 36.328125 -12.015625 C 37.023438 -12.734375 37.503906 -13.09375 37.765625 -13.09375 C 38.296875 -13.09375 38.5625 -12.457031 38.5625 -11.1875 C 38.5625 -8.601562 37.226562 -6.0625 34.5625 -3.5625 C 31.90625 -1.070312 29.097656 0.171875 26.140625 0.171875 C 23.023438 0.171875 20.566406 -2.523438 18.765625 -7.921875 C 18.242188 -9.535156 17.738281 -11.242188 17.25 -13.046875 C 16.164062 -11.617188 15.003906 -10.109375 13.765625 -8.515625 C 12.535156 -6.921875 11.207031 -5.453125 9.78125 -4.109375 C 6.5625 -0.992188 3.601562 0.5625 0.90625 0.5625 C 0.0703125 0.5625 -0.566406 0.429688 -1.015625 0.171875 C -1.460938 -0.0859375 -1.6875 -0.335938 -1.6875 -0.578125 C -1.6875 -0.828125 -1.535156 -1.0625 -1.234375 -1.28125 C -0.929688 -1.507812 -0.144531 -2.207031 1.125 -3.375 C 6.664062 -8.46875 11.519531 -14.050781 15.6875 -20.125 C 14.96875 -23.71875 14.289062 -26.804688 13.65625 -29.390625 C 12.570312 -29.085938 11.429688 -28.9375 10.234375 -28.9375 C 7.492188 -28.9375 5.316406 -29.40625 3.703125 -30.34375 C 1.648438 -31.507812 0.625 -33.175781 0.625 -35.34375 C 0.625 -37.519531 1.316406 -39.265625 2.703125 -40.578125 C 4.085938 -41.890625 5.816406 -42.546875 7.890625 -42.546875 C 9.972656 -42.546875 11.722656 -42.195312 13.140625 -41.5 C 14.566406 -40.8125 15.84375 -39.867188 16.96875 -38.671875 C 18.882812 -36.640625 20.5 -33.601562 21.8125 -29.5625 C 22.519531 -30.726562 23.273438 -31.9375 24.078125 -33.1875 C 24.890625 -34.445312 25.640625 -35.632812 26.328125 -36.75 C 27.023438 -37.875 27.65625 -38.867188 28.21875 -39.734375 C 28.78125 -40.597656 29.203125 -41.242188 29.484375 -41.671875 C 29.765625 -42.109375 30.164062 -42.34375 30.6875 -42.375 C 31.882812 -42.414062 33.175781 -42.21875 34.5625 -41.78125 C 35.945312 -41.351562 36.640625 -40.785156 36.640625 -40.078125 Z M 8.828125 -37.59375 C 8.148438 -37.59375 7.8125 -37.132812 7.8125 -36.21875 C 7.8125 -35.300781 8.269531 -34.46875 9.1875 -33.71875 C 10.101562 -32.96875 11.332031 -32.441406 12.875 -32.140625 C 11.707031 -35.773438 10.359375 -37.59375 8.828125 -37.59375 Z M 8.828125 -37.59375 "/></g></g></g></svg>